<?xml version="1.0" encoding="UTF-8" standalone="no"?>
<!-- Created with Inkscape (http://www.inkscape.org/) -->

<svg
   xmlns:dc="http://purl.org/dc/elements/1.1/"
   xmlns:cc="http://creativecommons.org/ns#"
   xmlns:rdf="http://www.w3.org/1999/02/22-rdf-syntax-ns#"
   xmlns:svg="http://www.w3.org/2000/svg"
   xmlns="http://www.w3.org/2000/svg"
   xmlns:xlink="http://www.w3.org/1999/xlink"
   xmlns:sodipodi="http://sodipodi.sourceforge.net/DTD/sodipodi-0.dtd"
   xmlns:inkscape="http://www.inkscape.org/namespaces/inkscape"
   width="317.5mm"
   height="52.916664mm"
   viewBox="0 0 317.5 52.916664"
   version="1.1"
   id="svg8"
   inkscape:version="0.92.2 (5c3e80d, 2017-08-06)"
   sodipodi:docname="drawing.svg">
  <defs
     id="defs2">
    <linearGradient
       inkscape:collect="always"
       id="linearGradient4522">
      <stop
         style="stop-color:#f9d423;stop-opacity:1"
         offset="0"
         id="stop4518" />
      <stop
         style="stop-color:#e65c00;stop-opacity:1"
         offset="1"
         id="stop4520" />
    </linearGradient>
    <linearGradient
       inkscape:collect="always"
       xlink:href="#linearGradient4522"
       id="linearGradient4524"
       x1="772.76672"
       y1="118.42805"
       x2="65.65992"
       y2="116.40775"
       gradientUnits="userSpaceOnUse"
       gradientTransform="matrix(0.40854794,0,0,0.19800513,-1.5013723,19.699022)" />
  </defs>
  <sodipodi:namedview
     id="base"
     pagecolor="#ffffff"
     bordercolor="#666666"
     borderopacity="1.0"
     inkscape:pageopacity="0"
     inkscape:pageshadow="2"
     inkscape:zoom="0.7"
     inkscape:cx="574.44602"
     inkscape:cy="78.206332"
     inkscape:document-units="px"
     inkscape:current-layer="layer1"
     showgrid="false"
     inkscape:snap-bbox="false"
     fit-margin-top="0"
     fit-margin-left="0"
     fit-margin-right="0"
     fit-margin-bottom="0"
     inkscape:window-width="1440"
     inkscape:window-height="855"
     inkscape:window-x="0"
     inkscape:window-y="23"
     inkscape:window-maximized="0" />
  <metadata
     id="metadata5">
    <rdf:RDF>
      <cc:Work
         rdf:about="">
        <dc:format>image/svg+xml</dc:format>
        <dc:type
           rdf:resource="http://purl.org/dc/dcmitype/StillImage" />
        <dc:title></dc:title>
      </cc:Work>
    </rdf:RDF>
  </metadata>
  <g
     inkscape:label="Layer 1"
     inkscape:groupmode="layer"
     id="layer1"
     transform="translate(-2.0008091,-21.32947)">
    <path
       style="opacity:1;fill:url(#linearGradient4524);fill-opacity:1;fill-rule:nonzero;stroke:none;stroke-width:0.02645833;stroke-linecap:round;stroke-linejoin:miter;stroke-miterlimit:4;stroke-dasharray:none;stroke-opacity:1"
       d="m 2.0008091,21.32947 v 48.020884 1.125382 c 1.6839608,0.184243 2.8601585,0.33206 5.051791,0.545674 2.1706879,0.211571 4.5827129,0.433243 7.2214029,0.657439 2.638692,0.224195 5.504276,0.450649 8.581103,0.671359 3.076827,0.220711 6.364739,0.435825 9.849836,0.636944 3.485096,0.201118 7.167298,0.388377 11.030792,0.553796 3.8635,0.165418 7.908758,0.309082 12.120788,0.422694 4.212032,0.113611 8.590714,0.197169 13.121411,0.242865 4.5307,0.04569 9.21317,0.05341 14.032667,0.01509 4.819493,-0.03832 9.776118,-0.122587 14.854545,-0.261042 5.078425,-0.138458 10.278775,-0.331201 15.586265,-0.585895 5.30749,-0.254694 10.72192,-0.571275 16.22861,-0.958313 2.75334,-0.193521 5.52981,-0.40461 8.32735,-0.634237 2.79755,-0.229627 5.61622,-0.477866 8.45423,-0.745612 2.83801,-0.267746 5.69519,-0.5553 8.56994,-0.86318 2.87473,-0.30788 5.76751,-0.636131 8.67526,-0.986158 3.86352,-0.437532 7.6436,-0.848213 11.34278,-1.232891 3.69918,-0.384678 7.31679,-0.743462 10.85446,-1.077813 3.53765,-0.334349 6.99593,-0.643918 10.37488,-0.93047 3.37895,-0.286551 6.67865,-0.549966 9.90171,-0.791246 6.44609,-0.482559 12.58357,-0.877192 18.42295,-1.193832 5.83937,-0.316639 11.3812,-0.555334 16.63636,-0.726278 5.25516,-0.170941 10.22334,-0.273967 14.91678,-0.319437 4.69344,-0.04547 9.1116,-0.03348 13.26585,0.0263 4.15423,0.05978 8.04437,0.167284 11.68191,0.312092 3.63754,0.144805 7.02247,0.32717 10.16581,0.536778 3.14336,0.20961 6.0451,0.446563 8.71677,0.700754 2.67166,0.254188 5.11302,0.525462 7.3355,0.804008 2.22248,0.278547 4.2263,0.564257 6.02209,0.846936 1.79581,0.282681 3.38408,0.562169 4.77571,0.828759 0.53417,0.102329 0.90353,0.190218 1.38044,0.288113 V 21.32947 Z"
       id="rect4504"
       inkscape:connector-curvature="0" />
  </g>
</svg>
