<?xml version="1.0" encoding="UTF-8" standalone="no"?>
<!-- Created with Inkscape (http://www.inkscape.org/) -->

<svg
   xmlns:dc="http://purl.org/dc/elements/1.1/"
   xmlns:cc="http://creativecommons.org/ns#"
   xmlns:rdf="http://www.w3.org/1999/02/22-rdf-syntax-ns#"
   xmlns:svg="http://www.w3.org/2000/svg"
   xmlns="http://www.w3.org/2000/svg"
   xmlns:sodipodi="http://sodipodi.sourceforge.net/DTD/sodipodi-0.dtd"
   xmlns:inkscape="http://www.inkscape.org/namespaces/inkscape"
   width="39.363991mm"
   height="10.347098mm"
   viewBox="0 0 39.363991 10.347098"
   version="1.1"
   id="svg8"
   inkscape:version="0.92.2 (5c3e80d, 2017-08-06)"
   sodipodi:docname="tracribe-logo.svg">
  <defs
     id="defs2" />
  <sodipodi:namedview
     id="base"
     pagecolor="#ffffff"
     bordercolor="#666666"
     borderopacity="1.0"
     inkscape:pageopacity="0.0"
     inkscape:pageshadow="2"
     inkscape:zoom="3.959798"
     inkscape:cx="97.593083"
     inkscape:cy="-3.5515072"
     inkscape:document-units="mm"
     inkscape:current-layer="flowRoot815"
     showgrid="false"
     inkscape:window-width="1440"
     inkscape:window-height="786"
     inkscape:window-x="0"
     inkscape:window-y="23"
     inkscape:window-maximized="0"
     fit-margin-top="0"
     fit-margin-left="0"
     fit-margin-right="0"
     fit-margin-bottom="0" />
  <metadata
     id="metadata5">
    <rdf:RDF>
      <cc:Work
         rdf:about="">
        <dc:format>image/svg+xml</dc:format>
        <dc:type
           rdf:resource="http://purl.org/dc/dcmitype/StillImage" />
        <dc:title />
      </cc:Work>
    </rdf:RDF>
  </metadata>
  <g
     inkscape:label="Layer 1"
     inkscape:groupmode="layer"
     id="layer1"
     transform="translate(-46.207588,-106.64174)">
    <g
       aria-label="Tracribe"
       transform="matrix(0.26458333,0,0,0.26458333,17.386905,22.640774)"
       style="font-style:normal;font-variant:normal;font-weight:normal;font-stretch:normal;font-size:40px;line-height:125%;font-family:'Avenir Next';-inkscape-font-specification:'Avenir Next, Normal';font-variant-ligatures:normal;font-variant-caps:normal;font-variant-numeric:normal;font-feature-settings:normal;text-align:start;letter-spacing:0px;word-spacing:0px;writing-mode:lr-tb;text-anchor:start;fill:#004455;fill-opacity:1;stroke:none;stroke-width:1px;stroke-linecap:butt;stroke-linejoin:miter;stroke-opacity:1"
       id="flowRoot815">
      <g
         id="g992">
        <rect
           y="106.64174"
           x="46.207588"
           height="10.347098"
           width="20.694197"
           id="rect831"
           style="opacity:1;fill:#d5e5ff;fill-opacity:1;fill-rule:nonzero;stroke:none;stroke-width:0.26499999;stroke-linecap:round;stroke-linejoin:miter;stroke-miterlimit:4;stroke-dasharray:none;stroke-opacity:1"
           transform="matrix(3.7795276,0,0,3.7795276,-65.714285,-85.571435)" />
        <path
           id="path965"
           style="fill:#37abc8"
           d="m 124.26773,351.08726 h -2.88 v -25.76 h -9.48 v -2.56 h 21.84 v 2.56 h -9.48 z" />
        <path
           id="path967"
           style="fill:#37abc8"
           d="m 134.24648,336.48726 q 0,-0.76 -0.04,-1.96 -0.04,-1.2 -0.12,-2.16 h 2.6 q 0.08,0.76 0.12,1.68 0.04,0.92 0.04,1.52 h 0.08 q 0.8,-1.64 2.4,-2.64 1.6,-1.04 3.6,-1.04 0.52,0 0.92,0.04 0.44,0.04 0.88,0.16 l -0.36,2.56 q -0.24,-0.08 -0.8,-0.16 -0.56,-0.08 -1.12,-0.08 -1.08,0 -2.08,0.4 -1,0.4 -1.76,1.28 -0.72,0.84 -1.2,2.2 -0.44,1.32 -0.44,3.2 v 9.6 h -2.72 v -14.6 z" />
        <path
           id="path969"
           style="fill:#37abc8"
           d="m 159.95273,339.00726 q 0,-2.44 -1.28,-3.64 -1.28,-1.2 -3.72,-1.2 -1.68,0 -3.12,0.6 -1.44,0.6 -2.44,1.6 l -1.52,-1.8 q 1.16,-1.16 3.04,-1.92 1.92,-0.76 4.32,-0.76 1.52,0 2.84,0.44 1.32,0.4 2.32,1.24 1,0.84 1.56,2.12 0.56,1.28 0.56,3 v 8.2 q 0,1.08 0.08,2.24 0.08,1.16 0.24,1.96 h -2.44 q -0.12,-0.68 -0.2,-1.48 -0.08,-0.8 -0.08,-1.56 h -0.08 q -1.28,1.88 -2.92,2.72 -1.6,0.8 -3.88,0.8 -1.08,0 -2.24,-0.32 -1.12,-0.28 -2.08,-0.96 -0.92,-0.68 -1.56,-1.76 -0.6,-1.08 -0.6,-2.64 0,-2.16 1.08,-3.4 1.12,-1.28 2.96,-1.88 1.84,-0.64 4.2,-0.8 2.4,-0.2 4.96,-0.2 z m -0.8,2.72 q -1.68,0 -3.4,0.16 -1.68,0.12 -3.08,0.56 -1.36,0.4 -2.24,1.2 -0.88,0.8 -0.88,2.12 0,1 0.36,1.68 0.4,0.68 1.04,1.12 0.64,0.4 1.4,0.6 0.8,0.16 1.6,0.16 1.44,0 2.56,-0.48 1.12,-0.52 1.88,-1.36 0.76,-0.88 1.16,-2 0.4,-1.12 0.4,-2.36 v -1.4 z" />
        <path
           id="path971"
           style="fill:#37abc8"
           d="m 182.96086,336.64726 q -0.68,-1.08 -2,-1.76 -1.28,-0.72 -2.8,-0.72 -1.64,0 -2.96,0.6 -1.32,0.56 -2.28,1.6 -0.92,1 -1.44,2.4 -0.48,1.36 -0.48,2.96 0,1.6 0.48,2.96 0.52,1.36 1.44,2.4 0.92,1 2.24,1.6 1.32,0.56 2.96,0.56 1.8,0 3.04,-0.68 1.24,-0.68 2.04,-1.76 l 2.04,1.52 q -1.2,1.48 -2.96,2.36 -1.72,0.88 -4.16,0.88 -2.28,0 -4.12,-0.72 -1.84,-0.76 -3.16,-2.08 -1.28,-1.32 -2,-3.12 -0.72,-1.8 -0.72,-3.92 0,-2.12 0.72,-3.92 0.72,-1.8 2,-3.12 1.32,-1.32 3.16,-2.04 1.84,-0.76 4.12,-0.76 1.88,0 3.8,0.84 1.96,0.8 3.16,2.4 z" />
        <path
           id="path973"
           style="font-style:normal;font-variant:normal;font-weight:600;font-stretch:normal;font-size:40px;font-family:'Avenir Next';-inkscape-font-specification:'Avenir Next, Semi-Bold';font-variant-ligatures:normal;font-variant-caps:normal;font-variant-numeric:normal;font-feature-settings:normal;text-align:start;writing-mode:lr-tb;text-anchor:start;fill:#004455"
           d="m 188.76086,331.88726 h 4.6 v 3.2 h 0.08 q 0.8,-1.68 2.24,-2.72 1.44,-1.04 3.36,-1.04 0.28,0 0.6,0.04 0.32,0 0.56,0.08 v 4.4 q -0.48,-0.12 -0.84,-0.16 -0.32,-0.04 -0.64,-0.04 -1.64,0 -2.64,0.6 -1,0.6 -1.56,1.44 -0.56,0.84 -0.76,1.72 -0.2,0.88 -0.2,1.4 v 10.28 h -4.8 z" />
        <path
           id="path975"
           style="font-style:normal;font-variant:normal;font-weight:600;font-stretch:normal;font-size:40px;font-family:'Avenir Next';-inkscape-font-specification:'Avenir Next, Semi-Bold';font-variant-ligatures:normal;font-variant-caps:normal;font-variant-numeric:normal;font-feature-settings:normal;text-align:start;writing-mode:lr-tb;text-anchor:start;fill:#004455"
           d="m 203.37211,331.88726 h 4.8 v 19.2 h -4.8 z m -0.68,-6.52 q 0,-1.16 0.84,-2 0.88,-0.88 2.2,-0.88 1.32,0 2.2,0.84 0.92,0.8 0.92,2.04 0,1.24 -0.92,2.08 -0.88,0.8 -2.2,0.8 -1.32,0 -2.2,-0.84 -0.84,-0.88 -0.84,-2.04 z" />
        <path
           id="path977"
           style="font-style:normal;font-variant:normal;font-weight:600;font-stretch:normal;font-size:40px;font-family:'Avenir Next';-inkscape-font-specification:'Avenir Next, Semi-Bold';font-variant-ligatures:normal;font-variant-caps:normal;font-variant-numeric:normal;font-feature-settings:normal;text-align:start;writing-mode:lr-tb;text-anchor:start;fill:#004455"
           d="m 218.87523,320.84726 v 13.48 h 0.12 q 0.36,-0.48 0.92,-1 0.56,-0.52 1.32,-0.96 0.8,-0.44 1.84,-0.72 1.04,-0.32 2.36,-0.32 2.04,0 3.76,0.8 1.72,0.76 2.96,2.12 1.24,1.36 1.92,3.2 0.68,1.84 0.68,3.96 0,2.12 -0.68,4 -0.64,1.84 -1.88,3.24 -1.2,1.36 -2.96,2.2 -1.72,0.8 -3.92,0.8 -2.04,0 -3.84,-0.88 -1.76,-0.88 -2.76,-2.56 h -0.08 v 2.88 h -4.56 v -30.24 z m 11,20.56 q 0,-1.12 -0.36,-2.2 -0.32,-1.12 -1,-2 -0.68,-0.88 -1.72,-1.4 -1.04,-0.56 -2.44,-0.56 -1.32,0 -2.36,0.56 -1.04,0.56 -1.8,1.44 -0.72,0.88 -1.12,2 -0.36,1.12 -0.36,2.24 0,1.12 0.36,2.24 0.4,1.08 1.12,1.96 0.76,0.88 1.8,1.44 1.04,0.52 2.36,0.52 1.4,0 2.44,-0.56 1.04,-0.56 1.72,-1.44 0.68,-0.88 1,-2 0.36,-1.12 0.36,-2.24 z" />
        <path
           id="path979"
           style="font-style:normal;font-variant:normal;font-weight:600;font-stretch:normal;font-size:40px;font-family:'Avenir Next';-inkscape-font-specification:'Avenir Next, Semi-Bold';font-variant-ligatures:normal;font-variant-caps:normal;font-variant-numeric:normal;font-feature-settings:normal;text-align:start;writing-mode:lr-tb;text-anchor:start;fill:#004455"
           d="m 252.90586,339.56726 q 0,-0.92 -0.28,-1.76 -0.24,-0.84 -0.8,-1.48 -0.56,-0.64 -1.44,-1 -0.84,-0.4 -2,-0.4 -2.16,0 -3.68,1.32 -1.48,1.28 -1.64,3.32 z m 4.8,2.16 q 0,0.32 0,0.64 0,0.32 -0.04,0.64 h -14.6 q 0.08,1.04 0.52,1.92 0.48,0.84 1.24,1.48 0.76,0.6 1.72,0.96 0.96,0.36 2,0.36 1.8,0 3.04,-0.64 1.24,-0.68 2.04,-1.84 l 3.2,2.56 q -2.84,3.84 -8.24,3.84 -2.24,0 -4.12,-0.68 -1.88,-0.72 -3.28,-2 -1.36,-1.28 -2.16,-3.12 -0.76,-1.88 -0.76,-4.24 0,-2.32 0.76,-4.2 0.8,-1.92 2.16,-3.24 1.36,-1.36 3.2,-2.08 1.88,-0.76 4.04,-0.76 2,0 3.68,0.68 1.72,0.64 2.96,1.96 1.24,1.28 1.92,3.24 0.72,1.92 0.72,4.52 z" />
      </g>
    </g>
  </g>
</svg>
